<?xml version="1.0" ?><!DOCTYPE svg  PUBLIC '-//W3C//DTD SVG 1.1//EN'  'http://www.w3.org/Graphics/SVG/1.1/DTD/svg11.dtd'><!-- Uploaded to: SVG Repo, www.svgrepo.com, Generator: SVG Repo Mixer Tools -->
<svg fill="#000000" width="800px" height="800px" viewBox="0 0 32 32" style="fill-rule:evenodd;clip-rule:evenodd;stroke-linejoin:round;stroke-miterlimit:2;" version="1.1" xml:space="preserve" xmlns="http://www.w3.org/2000/svg" xmlns:serif="http://www.serif.com/" xmlns:xlink="http://www.w3.org/1999/xlink"><path d="M11,12.999l-2.011,0c-0.552,0 -1,0.448 -1,1c-0,0.552 0.448,1 1,1l2.011,0l0,2.012c-0,0.551 0.448,1 1,1c0.552,-0 1,-0.449 1,-1l0,-2.012l2.011,0c0.552,0 1,-0.448 1,-1c0,-0.552 -0.448,-1 -1,-1l-2.011,0l0,-2.011c-0,-0.552 -0.448,-1 -1,-1c-0.552,-0 -1,0.448 -1,1l0,2.011Z"/><path d="M16.005,6l-11.005,-0c-1.657,0 -3,1.343 -3,3c-0,3.271 -0,9.729 -0,13c-0,1.657 1.343,3 3,3l1.126,-0c0.444,1.725 2.011,3.001 3.874,3.001c1.863,-0 3.43,-1.276 3.874,-3.001l4.252,-0c0.444,1.725 2.011,3.001 3.874,3.001c1.863,-0 3.43,-1.276 3.874,-3.001l1.126,-0c1.657,-0 3,-1.343 3,-3c0,-1.958 0,-5.057 0,-7.931c-0,-2.14 -0.85,-4.193 -2.363,-5.706c-1.497,-1.497 -3.522,-2.345 -5.637,-2.363l-0,-0.992c0,-0.794 -0.316,-1.556 -0.878,-2.118c-0.561,-0.562 -1.323,-0.878 -2.118,-0.878c-0.001,0 -0.002,0 -0.003,0c-0.794,0 -1.556,0.316 -2.118,0.878c-0.562,0.562 -0.878,1.324 -0.878,2.118l0,0.992Zm-6.005,16.001c1.104,-0 2,0.896 2,2c0,1.104 -0.896,2 -2,2c-1.104,-0 -2,-0.896 -2,-2c0,-1.104 0.896,-2 2,-2Zm12,-0c1.104,-0 2,0.896 2,2c0,1.104 -0.896,2 -2,2c-1.104,-0 -2,-0.896 -2,-2c0,-1.104 0.896,-2 2,-2Zm4.423,-12.013c-0.065,-0.072 -0.132,-0.142 -0.2,-0.211c-1.139,-1.138 -2.682,-1.777 -4.292,-1.777c0,0 -16.931,-0 -16.931,0c-0.552,0 -1,0.448 -1,1c-0,3.271 -0,9.729 -0,13c-0,0.552 0.448,1 1,1l1.126,-0c0.445,-1.724 2.012,-2.999 3.874,-2.999c1.862,-0 3.429,1.275 3.874,2.999l4.252,-0c0.445,-1.724 2.012,-2.999 3.874,-2.999c1.862,-0 3.429,1.275 3.874,2.999l1.126,-0c0.552,-0 1,-0.448 1,-1l0,-4.009l-4.005,0c-0.796,0 -1.559,-0.316 -2.122,-0.879c-0.562,-0.562 -0.878,-1.325 -0.878,-2.121c-0,-0.644 -0,-1.359 -0,-2.003c-0,-0.796 0.316,-1.559 0.878,-2.122c0.563,-0.562 1.326,-0.878 2.122,-0.878l2.428,-0Zm1.209,2l-3.637,-0c-0.266,-0 -0.52,0.105 -0.708,0.293c-0.187,0.187 -0.292,0.441 -0.292,0.707l-0,2.003c-0,0.265 0.105,0.52 0.292,0.707c0.188,0.188 0.442,0.293 0.708,0.293l4.005,0l0,-1.922c-0,-0.717 -0.127,-1.421 -0.368,-2.081Zm-7.632,-5.988l-0,-0.992c0,-0.264 -0.105,-0.517 -0.292,-0.704c-0.187,-0.187 -0.44,-0.292 -0.704,-0.292c-0.001,0 -0.002,0 -0.003,0c-0.264,0 -0.517,0.105 -0.704,0.292c-0.187,0.187 -0.292,0.44 -0.292,0.704l0,0.992l1.995,0Z"/></svg>